<svg width="416" height="341" viewBox="0 0 416 341" fill="none" xmlns="http://www.w3.org/2000/svg">
<g id="hombre-sentado-ordenador" clip-path="url(#clip0_458_615)">
<g id="hombre-sentado">
<path id="Vector" d="M199.567 209.639C197.843 209.862 196.266 208.645 196.043 206.922C195.82 205.199 197.037 203.621 198.76 203.398C200.483 203.176 202.061 204.392 202.284 206.115C202.507 207.839 201.29 209.417 199.567 209.639Z" fill="#F2F2F2"/>
<path id="Vector_2" d="M320.963 6.50718C321.85 6.31766 322.774 6.40219 323.612 6.74959C324.446 7.17517 325.048 8.0318 325.651 8.82332C327.963 11.8886 330.886 14.4404 334.236 16.317C336.673 17.66 339.765 19.3274 339.773 22.3832C339.701 23.402 339.457 24.4013 339.052 25.3392C337.534 29.7497 332.345 33.6773 333.508 38.336C331.026 35.1843 333.537 33.1428 331.055 29.9911C329.873 28.4901 327.948 26.8723 326.613 28.0833C326.166 28.4888 325.923 29.1439 325.45 29.5101C324.323 30.3839 322.848 29.1827 321.642 28.3527C317.485 25.4904 312.302 27.051 307.801 28.6919C305.677 29.4665 303.357 30.4224 302.333 32.681C300.988 35.6505 304.688 38.1916 305.928 41.1921C306.031 41.4481 306.07 41.7252 306.042 41.9997C306.014 42.2742 305.921 42.5378 305.769 42.7681C305.617 42.9984 305.411 43.1885 305.17 43.3221C304.929 43.4557 304.658 43.5288 304.383 43.5352C302.974 43.5778 301.312 43.6783 301.151 43.0786C299.409 43.3671 297.24 43.446 296.254 41.7209C295.932 41.0297 295.714 40.2945 295.607 39.5393C294.936 36.5143 293.276 33.89 292.039 31.0883C290.802 28.2866 289.987 24.9211 291.105 22.1508C291.513 21.2245 292.053 20.3627 292.709 19.5925C299.919 10.5522 310.584 7.83658 320.963 6.50718Z" fill="#2F2E41"/>
<path id="Vector_3" d="M332.487 44.5419C332.487 44.5419 332.626 59.7092 339.352 60.0547C346.078 60.4002 336.157 82.3342 336.157 82.3342L306.749 89.7796L310.83 64.9559C310.83 64.9559 315.377 62.5459 310.846 50.9835C306.314 39.421 332.487 44.5419 332.487 44.5419Z" fill="#FFB8B8"/>
<path id="Vector_4" d="M383.873 298.781L385.73 331.949L373.185 333.57L372.522 300.248L383.873 298.781Z" fill="#FFB8B8"/>
<path id="Vector_5" d="M283.839 248.54L285.599 276.253L271.086 272.055L273.529 248.658L283.839 248.54Z" fill="#FFB8B8"/>
<path id="Vector_6" d="M376.619 172.164C376.619 172.164 380.5 206.892 378.383 218.706C376.265 230.52 376.94 231.041 377.769 232.756C378.598 234.471 379.041 233.199 379.427 236.186C379.813 239.173 387.108 286.215 386.454 290.551C385.8 294.888 391.506 301.439 387.998 302.5C384.491 303.561 367.686 305.125 366.625 301.618C365.564 298.111 370.787 296.221 368.088 294.14C365.39 292.059 355.473 243.534 355.473 243.534L342.708 210.561L324.859 194.646L292 198.893L286.94 239.636C286.94 239.636 292.589 250.446 289.602 250.833C286.615 251.219 269.155 257.12 267.457 243.976C265.758 230.833 266.713 191.228 267.754 189.879C268.794 188.529 266.461 184.579 268.022 182.555C269.583 180.531 288.871 165.283 296.329 161.889C303.786 158.496 314.314 154.243 314.314 154.243L376.619 172.164Z" fill="#2F2E41"/>
<path id="Vector_7" d="M270.468 267.276C270.468 267.276 279.043 263.13 284.384 271.551C289.724 279.972 288.241 282.594 288.241 282.594C288.241 282.594 275.117 289.149 272.419 287.068C271.245 286.163 267.897 286.228 264.488 286.591C259.298 287.144 256.974 279.999 261.642 277.662C261.781 277.593 261.923 277.53 262.068 277.473C266.693 275.66 270.468 267.276 270.468 267.276Z" fill="#2F2E41"/>
<path id="Vector_8" d="M320.319 56.1368C310.421 57.4162 301.36 50.429 300.08 40.5305C298.801 30.632 305.788 21.5706 315.686 20.2913C325.585 19.0119 334.646 25.9991 335.926 35.8975C337.205 45.796 330.218 54.8575 320.319 56.1368Z" fill="#FFB8B8"/>
<path id="Vector_9" d="M345.395 66.8662C345.395 66.8662 316.893 76.624 308.489 67.9918C300.084 59.3596 301.807 96.1887 301.807 96.1887L303.164 134.887L311.244 155.102C311.244 155.102 342.257 174.175 351.45 174.809C360.643 175.443 374.538 174.862 374.538 174.862C374.538 174.862 361.785 109.088 361.631 107.894C361.477 106.699 345.395 66.8662 345.395 66.8662Z" fill="#FFB563"/>
<path id="Vector_10" d="M335.044 56.8124C335.044 56.8124 341.075 52.2394 343.33 55.5923C345.586 58.9452 363.472 65.7446 365.264 65.5129C367.057 65.2813 368.089 115.563 371.251 121.228C374.413 126.893 391.4 169.038 385.292 173.472C379.184 177.906 383.036 170.119 377.623 179.93C372.21 189.741 339.949 193.911 337.693 190.558C335.437 187.205 348.093 158.236 341.863 133.53C335.633 108.824 326.375 74.7912 329.939 69.4712C333.503 64.1513 335.044 56.8124 335.044 56.8124Z" fill="#2F2E41"/>
<path id="Vector_11" d="M314 63.6351L312.797 60.8789C312.797 60.8789 289.005 72.3323 288.505 77.8635C288.005 83.3948 293.467 120.955 298.036 123.402C302.604 125.849 309.196 129.856 305.94 137.566C302.685 145.275 298.909 153.659 295.402 154.72C291.895 155.781 285.863 160.812 288.196 164.763C290.529 168.713 311.032 158.167 311.032 158.167C311.032 158.167 323.981 145.56 321.221 128.909C318.462 112.258 314 63.6351 314 63.6351Z" fill="#2F2E41"/>
<path id="Vector_12" d="M302.201 136.834L320.014 161.865C320.014 161.865 343.704 180.67 332.064 184.604C320.425 188.538 310.996 167.282 310.996 167.282L292.606 147.185L302.201 136.834Z" fill="#FFB8B8"/>
<path id="Vector_13" d="M320.696 11.3095C321.412 11.1626 322.153 11.2094 322.845 11.4451C323.488 11.7984 324.044 12.2909 324.473 12.8867C326.376 15.0777 328.716 16.8464 331.344 18.0793C333.305 18.9977 335.794 20.137 335.759 22.302C335.683 23.0362 335.47 23.7499 335.133 24.4063C333.838 27.5825 333.613 31.094 334.492 34.4095L328.573 27.8115C327.634 26.7641 326.092 25.644 324.991 26.5203C324.623 26.8137 324.416 27.2812 324.027 27.5471C323.1 28.1816 321.918 27.3507 320.95 26.779C317.612 24.8076 313.38 25.984 309.703 27.208C307.966 27.7859 306.069 28.4948 305.207 30.1091C303.774 32.7917 306.06 36.1049 305.406 39.0746C305.094 38.9114 304.818 38.6873 304.595 38.4155C304.371 38.1437 304.204 37.8299 304.105 37.4925C302.686 37.7206 300.922 37.8061 300.146 36.5972C299.895 36.1165 299.727 35.5969 299.65 35.0602C299.146 32.926 297.833 31.0892 296.867 29.1209C295.9 27.1526 295.284 24.7791 296.23 22.8009C296.583 22.1265 297.033 21.5082 297.568 20.9663C303.548 14.4625 312.248 12.3929 320.696 11.3095Z" fill="#2F2E41"/>
<path id="Vector_14" d="M294.171 74.7016L288.795 76.8985C288.795 76.8985 280.129 111.746 286.05 134.062C291.972 156.378 293.146 151.367 293.146 151.367C293.146 151.367 296.536 139.996 307.598 140.996L294.171 74.7016Z" fill="#2F2E41"/>
<path id="Vector_15" d="M386.731 327.404C388.425 329.176 388.498 332.012 390.041 333.915C391.379 335.566 393.585 336.236 395.174 337.647C395.684 338.117 396.151 338.633 396.569 339.186C398.131 341.17 399.53 343.791 398.545 346.116C397.753 347.986 395.704 348.942 393.803 349.658C391.401 350.564 388.887 351.365 386.323 351.242C383.759 351.118 381.111 349.9 379.91 347.632C379.656 347.055 379.372 346.493 379.056 345.948C377.352 343.449 373.087 343.971 371.354 341.493C370.14 339.758 370.744 337.394 371.392 335.38L373.373 329.226C374.03 327.184 377.847 327.816 379.702 327.107C382.122 326.183 384.618 325.186 386.731 327.404Z" fill="#2F2E41"/>
<path id="Vector_16" d="M382.606 138.59L362.533 180.666C362.533 180.666 349.548 202.388 343.61 194.045C337.673 185.701 357.25 167.986 357.25 167.986L369.519 136.029L382.606 138.59Z" fill="#FFB8B8"/>
<path id="Vector_17" d="M360.64 67.3255L365.264 65.5129C365.264 65.5129 375.209 67.2646 379.221 79.5017C383.232 91.7387 387.926 142.154 385.016 143.138C382.106 144.121 369.133 136.307 367.505 138.529C365.878 140.752 370.539 129.824 368.052 124.678C365.565 119.533 360.64 67.3255 360.64 67.3255Z" fill="#2F2E41"/>
</g>
<g id="ordenador">
<path id="Vector_18" d="M147.043 110.252L260.249 101.782C260.811 101.74 261.376 101.809 261.912 101.986C262.448 102.162 262.943 102.442 263.371 102.81C263.798 103.178 264.148 103.626 264.402 104.129C264.656 104.633 264.809 105.181 264.851 105.743L270.556 182.002C270.598 182.565 270.529 183.13 270.353 183.665C270.176 184.201 269.896 184.696 269.528 185.124C269.161 185.551 268.712 185.902 268.209 186.156C267.705 186.41 267.157 186.562 266.595 186.604L223.621 189.819L226 199.978C226 199.978 235.566 204.177 229.108 204.805C222.649 205.433 192.16 207.569 192.16 207.569C192.16 207.569 186.266 208.01 195.223 202.135L195.979 191.887L153.388 195.073C152.826 195.115 152.261 195.046 151.725 194.87C151.19 194.694 150.694 194.413 150.267 194.046C149.84 193.678 149.489 193.229 149.235 192.726C148.981 192.223 148.829 191.674 148.787 191.112L143.082 114.853C143.04 114.291 143.109 113.726 143.285 113.19C143.461 112.655 143.741 112.159 144.109 111.732C144.477 111.304 144.925 110.954 145.429 110.7C145.932 110.446 146.48 110.293 147.043 110.252Z" fill="#3F3D56"/>
<path id="Vector_19" d="M147.421 117.786L260.996 109.289L265.75 172.833L152.175 181.33L147.421 117.786Z" fill="#F2F2F2"/>
<path id="Vector_20" d="M204.112 112.243C203.715 112.273 203.369 111.975 203.339 111.578C203.309 111.181 203.607 110.835 204.004 110.806C204.401 110.776 204.747 111.074 204.777 111.471C204.806 111.868 204.509 112.214 204.112 112.243Z" fill="#F2F2F2"/>
<g id="lineas-codigo">
<g id="linea-4">
<path id="Rectangle 59" d="M235.114 153.356L248.63 152.344L248.874 155.598L235.357 156.61L235.114 153.356Z" fill="#FFB563"/>
<path id="Rectangle 62" d="M198.068 156.127L230.358 153.711L230.601 156.965L198.311 159.381L198.068 156.127Z" fill="#FFB563"/>
<path id="Rectangle 60" d="M188.306 156.857L193.062 156.502L193.305 159.756L188.549 160.111L188.306 156.857Z" fill="#FFB563"/>
<path id="Rectangle 61" d="M178.794 157.569L183.55 157.213L183.793 160.467L179.038 160.823L178.794 157.569Z" fill="#FFB563"/>
</g>
<g id="linea-3">
<path id="Rectangle 71" d="M243.369 145.942L248.125 145.586L248.368 148.84L243.612 149.196L243.369 145.942Z" fill="#FFB563"/>
<path id="Rectangle 70" d="M225.096 147.309L238.613 146.298L238.856 149.552L225.34 150.563L225.096 147.309Z" fill="#FFB563"/>
<path id="Rectangle 69" d="M206.824 148.676L220.34 147.665L220.584 150.919L207.067 151.93L206.824 148.676Z" fill="#FFB563"/>
<path id="Rectangle 74" d="M170.028 151.429L202.318 149.013L202.562 152.267L170.272 154.683L170.028 151.429Z" fill="#FFB563"/>
<path id="Rectangle 73" d="M160.517 152.14L165.272 151.784L165.516 155.038L160.76 155.394L160.517 152.14Z" fill="#FFB563"/>
</g>
<g id="linea-2">
<path id="Rectangle 66" d="M242.844 138.933L247.6 138.577L247.844 141.831L243.088 142.187L242.844 138.933Z" fill="#FFB563"/>
<path id="Rectangle 67" d="M233.333 139.645L238.089 139.289L238.332 142.543L233.576 142.899L233.333 139.645Z" fill="#FFB563"/>
<path id="Rectangle 68" d="M196.287 142.416L228.577 140.001L228.82 143.255L196.53 145.67L196.287 142.416Z" fill="#FFB563"/>
<path id="Rectangle 63" d="M178.265 143.765L191.781 142.753L192.025 146.007L178.508 147.019L178.265 143.765Z" fill="#FFB563"/>
<path id="Rectangle 64" d="M159.992 145.132L173.509 144.12L173.752 147.374L160.236 148.386L159.992 145.132Z" fill="#FFB563"/>
</g>
<g id="linea-1">
<path id="elemento-4" d="M216.52 133.603L230.036 132.592L230.28 135.846L216.763 136.857L216.52 133.603Z" fill="#FFB563"/>
<path id="elemento-3" d="M179.474 136.374L211.764 133.959L212.007 137.213L179.717 139.629L179.474 136.374Z" fill="#FFB563"/>
<path id="elemento-2" d="M169.712 137.105L174.468 136.749L174.711 140.003L169.955 140.359L169.712 137.105Z" fill="#FFB563"/>
<path id="elemento-1" d="M160.2 137.816L164.956 137.461L165.199 140.715L160.444 141.07L160.2 137.816Z" fill="#FFB563"/>
</g>
</g>
</g>
</g>
<defs>
<clipPath id="clip0_458_615">
<rect width="372.168" height="350.448" fill="white" transform="matrix(-0.991751 0.128182 0.128182 0.991751 370.091 0.15741)"/>
</clipPath>
</defs>
</svg>
